<svg width="108" height="34" viewBox="0 0 108 34" fill="none" xmlns="http://www.w3.org/2000/svg">
<g filter="url(#filter0_d_10_198)">
<path d="M17.5299 25.663C17.0853 25.3334 17.0952 25.2474 17.971 21.7411C18.4634 19.7692 18.9177 17.5293 18.9803 16.7635L19.0943 15.3713L17.9208 17.6802C15.8308 21.7927 14.2918 23.7897 12.3 24.9737C11.0519 25.7155 8.73933 25.9654 7.19025 25.5254C4.03226 24.6288 2.90495 20.3426 5.25048 18.15C6.66297 16.8297 10.7029 17.3585 10.2503 18.8047C10.1012 19.2812 9.97898 19.3197 9.05796 19.1797C8.16025 19.0431 7.95608 19.0999 7.42904 19.6347C6.96276 20.1076 6.82617 20.4869 6.82617 21.3105C6.82617 22.2057 6.94133 22.4729 7.55079 22.9931C8.80056 24.0596 10.7205 23.7097 12.2673 22.1335C13.336 21.0449 15.1752 17.6164 17.5301 12.324C19.9769 6.82482 21.4495 3.85618 22.7287 1.84508C23.888 0.0221906 24.0722 -0.132105 24.8512 0.0661386C25.7333 0.290656 25.7795 1.09653 25.0097 2.84012C23.5578 6.12857 22.5144 9.99361 22.2386 13.1022L22.0799 14.8936L24.3816 11.5497C27.3029 7.30609 28.9912 5.18178 31.6429 2.41377C33.3351 0.647255 33.8935 0.204432 34.4297 0.204432C35.273 0.204432 35.5252 0.794386 35.034 1.61793C34.8319 1.9571 33.6382 3.95434 32.3816 6.0562C27.7237 13.8469 25.6151 19.5662 26.3624 22.3812C26.684 23.5927 27.2259 23.7866 28.544 23.163C29.9817 22.4827 30.7098 21.723 31.5595 20.0159C33.1133 16.8939 36.1952 14.5353 38.7209 14.5353C39.3836 14.5353 40.1379 14.6858 40.3967 14.8697C40.8003 15.1563 40.9319 15.1563 41.3184 14.8697C41.9059 14.4338 42.9581 14.4419 43.3206 14.885C43.553 15.169 43.363 15.7181 42.3077 17.8109C41.5932 19.2277 40.7636 20.8363 40.464 21.3857C40.1647 21.9348 39.9921 22.4576 40.0806 22.5475C40.6197 23.0942 43.054 20.4685 45.5323 16.6677C46.3891 15.3538 46.3957 15.3259 46.0415 14.466C45.5811 13.3487 45.5804 11.1296 46.0398 10.2282C46.426 9.47101 47.4759 8.80295 48.2794 8.80295C48.5549 8.80295 49.0902 9.11704 49.4686 9.50111C50.0308 10.0712 50.157 10.4016 50.157 11.302C50.157 11.9333 49.9556 12.8048 49.686 13.3411C49.0659 14.5738 49.0796 14.6201 50.014 14.4663C50.981 14.3072 51.8054 14.8131 51.8054 15.5657C51.8054 15.8557 51.0575 17.0537 50.1365 18.2391C47.0197 22.2506 46.5165 24.2626 48.8806 23.2607C50.4212 22.6079 51.2012 21.8288 54.8681 17.2806C57.5386 13.9683 58.5599 12.8634 58.9508 12.8634C59.5528 12.8634 60.5188 13.4837 60.5188 13.8703C60.5188 14.0151 60.0779 14.7261 59.5389 15.4501L58.5587 16.7666L58.8715 17.8605C59.0434 18.462 59.2301 19.4107 59.2864 19.9691C59.3427 20.5275 59.4407 20.9842 59.5042 20.9842C59.5678 20.9842 60.2298 20.5502 60.9756 20.0197C62.0572 19.2499 62.4536 18.7794 62.9363 17.691C65.5765 11.7384 67.6688 7.1635 67.9571 6.71304C68.364 6.07722 69.7115 5.96831 70.1743 6.5339C70.4868 6.91606 70.4814 6.93158 67.9689 12.9293L66.8903 15.5029L67.9053 14.8998C69.0185 14.2382 69.8844 14.1345 70.4522 14.595C70.9872 15.0288 71.3574 16.3515 71.1909 17.2343C71.0407 18.0316 69.9296 20.3766 68.8769 22.1187C68.5107 22.7247 68.3777 23.1338 68.547 23.1338C69.1826 23.1338 70.8445 21.4222 71.4721 20.1212C72.2968 18.4111 74.846 15.7678 76.4147 14.9956C77.9018 14.2635 79.7846 14.204 80.5064 14.8666C80.9331 15.2583 81.0151 15.2688 81.1368 14.9478C81.4335 14.1634 83.5973 14.2902 83.5973 15.0921C83.5973 15.2733 82.8554 16.8739 81.9488 18.6485C81.0421 20.4231 80.3003 22.108 80.3003 22.3927C80.3003 23.3058 80.9463 23.2298 82.1939 22.1703C83.1524 21.3566 83.6114 20.6837 84.5329 18.7421C86.8254 13.9114 90.3056 9.46146 93.485 7.29487C95.3362 6.03351 97.0205 6.16464 97.0205 7.57002C97.0205 8.31618 95.4954 11.6512 94.4486 13.1944C93.3788 14.7713 90.984 17.0439 88.7614 18.5914C86.3184 20.292 86.2256 20.3995 86.0462 21.7256C85.8717 23.0185 86.4748 23.7701 87.4815 23.5138C88.5318 23.2463 90.6889 20.7539 92.0659 18.2174C93.8775 14.8792 94.7781 13.4612 96.2772 11.5846C97.8473 9.6191 101.198 6.75746 102.186 6.53724C103.151 6.32228 103.822 6.57689 103.981 7.21796C104.147 7.88912 103.214 10.5229 102.173 12.3238C101.193 14.0175 97.9528 17.3145 95.5392 19.0734C93.6435 20.4549 93.2441 21.16 93.5827 22.5283C94.0198 24.2939 96.0295 23.5563 98.2323 20.822C99.512 19.2337 99.7124 19.0739 100.026 19.3918C100.535 19.9082 100.271 20.6214 98.8745 22.4973C97.5527 24.2734 95.7511 25.6401 94.4093 25.8846C92.9308 26.1541 91.3577 25.1084 90.8227 23.5C90.7803 23.3729 90.3826 23.6165 89.9387 24.0412C88.8224 25.1089 86.9799 26 85.8881 26C85.1918 26 84.8101 25.8335 84.2856 25.3018C83.9072 24.9178 83.5973 24.3804 83.5973 24.1076C83.5973 23.8348 83.5398 23.6115 83.4694 23.6115C83.399 23.6115 82.7897 24.034 82.1153 24.5502C80.0436 26.1361 78.962 26.2587 77.9725 25.0191L77.5759 24.5222L76.7599 25.0093C76.311 25.2768 75.4388 25.6102 74.8218 25.7497C73.515 26.0454 72.5276 25.732 71.6207 24.7341L71.0656 24.1236L70.1302 24.8108C68.7024 25.8598 67.7628 26.1065 66.9058 25.657C66.0197 25.1922 65.4625 24.4014 65.4698 23.6182C65.4729 23.2862 66.1087 21.7855 66.8828 20.2832C67.6566 18.7806 68.2901 17.4641 68.2901 17.3571C68.2901 16.8985 67.6161 17.2448 66.4238 18.3148C65.3172 19.3084 64.9684 19.8599 63.8185 22.4319C62.3003 25.8278 61.732 26.4094 60.5776 25.7485C59.9022 25.3616 59.7416 24.4974 60.1641 23.5186C60.292 23.2224 59.7736 23.4845 58.6536 24.2822C55.8329 26.2914 53.5606 26.4557 52.0014 24.7628L51.3719 24.0792L50.1167 24.8411C49.2195 25.3857 48.4786 25.6336 47.5173 25.71C46.2675 25.8096 46.1222 25.7659 45.4567 25.0909C44.9363 24.5631 44.7408 24.1403 44.7408 23.5425C44.7408 22.396 46.1321 19.6961 47.5588 18.075C48.3062 17.2254 48.6552 16.6575 48.4923 16.5552C48.1758 16.357 48.2897 16.2256 46.0403 19.3901C43.5589 22.8811 42.132 24.4143 40.6828 25.1468C39.2114 25.8904 38.2339 25.9274 37.5394 25.2655L37.0194 24.7702L36.0617 25.2655C34.8147 25.9109 33.1039 25.9176 32.0747 25.2813C31.6497 25.0181 31.2418 24.6445 31.1686 24.4511C31.0609 24.1668 30.8445 24.232 30.0476 24.7881C28.3709 25.9582 26.3348 26.2336 24.9028 25.4839C23.8077 24.9106 23.4024 22.4416 23.8501 19.0734L24.0248 17.7598L23.2877 19.0734C21.245 22.7158 18.8058 26 18.1431 26C18.0557 26 17.7797 25.8483 17.5299 25.663ZM55.9374 23.5026C56.4068 23.0266 56.5149 22.6786 56.512 21.6515C56.5085 20.1872 56.3081 19.2626 56.0156 19.3619C55.6007 19.5029 53.6894 22.0698 53.6894 22.4861C53.6894 22.9552 54.6888 24.089 55.1024 24.089C55.2437 24.089 55.6195 23.8251 55.9374 23.5026ZM76.6996 22.3017C78.6566 20.6025 80.0519 16.4437 78.7289 16.2526C76.9897 16.0014 73.6999 19.7921 73.6349 22.1223C73.5878 23.8014 74.8844 23.8774 76.6996 22.3014V22.3017ZM36.0631 22.6843C37.6579 21.6585 38.9719 19.5263 39.2423 17.5262C39.4024 16.3417 39.1062 16.031 38.0688 16.2949C35.9117 16.8442 32.675 21.7951 33.6745 23.0168C34.1139 23.5537 34.8764 23.4474 36.0631 22.6843ZM90.61 14.5948C92.2929 12.9147 94.7536 9.28041 94.2084 9.28041C94.0994 9.28041 93.1729 10.1775 92.1497 11.2741C90.3649 13.1863 88.09 16.4458 88.5401 16.4458C88.6587 16.4458 89.5904 15.613 90.61 14.5948ZM98.3048 14.1768C99.4654 13.0943 101.799 9.28041 101.301 9.28041C100.619 9.28041 95.843 15.4126 95.843 16.2875C95.843 16.4291 96.3394 16.0661 96.946 15.4804C97.397 15.0438 97.8499 14.6092 98.3048 14.1768ZM48.2457 12.3618C48.4741 11.698 48.2794 10.7135 47.9198 10.7135C47.6198 10.7135 47.3204 11.7919 47.4519 12.3995C47.648 13.3048 47.9264 13.2916 48.2459 12.3618H48.2457Z" fill="black"/>
</g>
<defs>
<filter id="filter0_d_10_198" x="0" y="0" width="108" height="34" filterUnits="userSpaceOnUse" color-interpolation-filters="sRGB">
<feFlood flood-opacity="0" result="BackgroundImageFix"/>
<feColorMatrix in="SourceAlpha" type="matrix" values="0 0 0 0 0 0 0 0 0 0 0 0 0 0 0 0 0 0 127 0" result="hardAlpha"/>
<feOffset dy="4"/>
<feGaussianBlur stdDeviation="2"/>
<feComposite in2="hardAlpha" operator="out"/>
<feColorMatrix type="matrix" values="0 0 0 0 0 0 0 0 0 0 0 0 0 0 0 0 0 0 0.25 0"/>
<feBlend mode="normal" in2="BackgroundImageFix" result="effect1_dropShadow_10_198"/>
<feBlend mode="normal" in="SourceGraphic" in2="effect1_dropShadow_10_198" result="shape"/>
</filter>
</defs>
</svg>
